<svg id="Layer_1" data-name="Layer 1" xmlns="http://www.w3.org/2000/svg" viewBox="0 0 512 512"><defs><style>.cls-1{fill:#0e2b3d;}</style></defs><path class="cls-1" d="M461,349l-34-19.64a89.38,89.38,0,0,1,20.94-16,22,22,0,0,0-21.28-38.51A133.62,133.62,0,0,0,388.11,307L300,256l88.09-50.86a133.62,133.62,0,0,0,38.55,32.1,22,22,0,0,0,21.61-38.33l-.33-.18a89.66,89.66,0,0,1-20.94-16l34-19.64a22,22,0,1,0-20.75-38.8c-.41.22-.83.46-1.23.71l-34,19.63a89.92,89.92,0,0,1-3.42-26.15A22,22,0,0,0,380.07,96h-.48a22,22,0,0,0-22,21.59,133.53,133.53,0,0,0,8.5,49.41L278,217.89V116.18a133.46,133.46,0,0,0,47.07-17.33,22,22,0,0,0-22.71-37.69A89.8,89.8,0,0,1,278,71.27V38a22,22,0,0,0-44,0V71.27a89.8,89.8,0,0,1-24.36-10.11,22,22,0,1,0-22.71,37.69A133.46,133.46,0,0,0,234,116.18V217.89L145.91,167a133.41,133.41,0,0,0,8.52-49.43,22,22,0,0,0-22-21.59H132a22,22,0,0,0-21.59,22.4h0A89.84,89.84,0,0,1,107,144.58L73,125a22,22,0,0,0-22.54,37.79l.54.31,34,19.64a89.66,89.66,0,0,1-20.94,16,22,22,0,1,0,21,38.69l.33-.18a133.62,133.62,0,0,0,38.55-32.1L212,256l-88.09,50.86a133.62,133.62,0,0,0-38.55-32.1,22,22,0,1,0-21.61,38.33l.33.18a89.66,89.66,0,0,1,20.94,16L51,349a22,22,0,1,0,21.46,38.41l.54-.31,34-19.63a89.92,89.92,0,0,1,3.42,26.15A22,22,0,0,0,132,416h.41a22,22,0,0,0,22-21.59,133.53,133.53,0,0,0-8.5-49.41L234,294.11V395.82a133.46,133.46,0,0,0-47.07,17.33,22,22,0,1,0,22.71,37.69A89.8,89.8,0,0,1,234,440.73V474a22,22,0,0,0,44,0V440.73a89.8,89.8,0,0,1,24.36,10.11,22,22,0,0,0,22.71-37.69A133.46,133.46,0,0,0,278,395.82V294.11L366.09,345a133.41,133.41,0,0,0-8.52,49.43,22,22,0,0,0,22,21.59H380a22,22,0,0,0,21.59-22.4h0A89.84,89.84,0,0,1,405,367.42l34,19.63a22,22,0,1,0,23.77-37A19.44,19.44,0,0,0,461,349Z"/></svg>